<?xml version="1.0" encoding="iso-8859-1"?>
<!-- Generator: Adobe Illustrator 24.3.0, SVG Export Plug-In . SVG Version: 6.00 Build 0)  -->
<svg version="1.1" id="Layer_1" xmlns="http://www.w3.org/2000/svg" xmlns:xlink="http://www.w3.org/1999/xlink" x="0px" y="0px"
	 viewBox="0 0 85 85" style="enable-background:new 0 0 85 85;" xml:space="preserve">
<path style="fill:#DEDFE0;" d="M42.5,5.4c-11.3,0-20.5,9.1-20.6,20.4c0,2.4,0.4,4.6,1.1,6.8h38.7c0.7-2.1,1.1-4.3,1.1-6.6
	C62.9,14.6,53.8,5.5,42.5,5.4z M26.7,28.2L26.7,28.2c-1,0-1.7-0.7-1.8-1.6c-0.1-0.9,0.7-1.7,1.6-1.8c0.9,0,1.7,0.7,1.8,1.6
	C28.4,27.4,27.7,28.2,26.7,28.2z M30.3,18.5c-0.3,0.5-0.9,0.8-1.5,0.8c-0.3,0-0.6-0.1-0.9-0.2c-0.8-0.5-1.1-1.5-0.6-2.3
	s1.5-1.1,2.3-0.6C30.5,16.7,30.8,17.7,30.3,18.5z M36.3,13c-0.2,0.1-0.5,0.2-0.7,0.2c-0.6,0-1.2-0.4-1.5-0.9c-0.4-0.8,0-1.8,0.8-2.3
	c0.8-0.4,1.8-0.1,2.2,0.8C37.5,11.6,37.1,12.6,36.3,13z M46.3,10.3c-0.1,0.8-0.8,1.4-1.7,1.4c-0.1,0-0.2,0-0.2,0
	c-0.9-0.1-1.6-1-1.4-1.9c0.1-0.9,1-1.6,1.9-1.4C45.7,8.5,46.4,9.4,46.3,10.3z M54.1,15c-0.3,0.4-0.8,0.6-1.3,0.6
	c-0.4,0-0.8-0.1-1.1-0.4l0,0c-0.7-0.6-0.8-1.7-0.2-2.4c0.7-0.7,1.8-0.8,2.5-0.2C54.7,13.2,54.8,14.3,54.1,15z M56,22.1
	c-0.2-0.9,0.3-1.8,1.2-2.1c0.9-0.2,1.8,0.3,2.1,1.2c0.2,0.9-0.3,1.8-1.2,2.1c-0.2,0-0.3,0-0.4,0C56.9,23.3,56.3,22.8,56,22.1
	L56,22.1z M59.7,28.5c-0.1,0.8-0.8,1.4-1.7,1.4c-0.1,0-0.2,0-0.3,0c-0.9-0.1-1.5-1-1.4-1.9c0.2-0.9,1-1.5,1.9-1.4
	C59.2,26.7,59.8,27.6,59.7,28.5z"/>
<path style="fill:#0F7DEA;" d="M11,35.6v44h63v-44H11z M19,45.4h47v8.4H19V45.4z M42,70.6H19v-2h23V70.6z M42,65.6H19v-2h23V65.6z
	 M61.3,71.9c-2.6,0-4.7-2.1-4.7-4.8c0-2.6,2.1-4.7,4.8-4.7s4.7,2.1,4.7,4.8C66,69.8,63.9,71.9,61.3,71.9z"/>
</svg>
