<?xml version="1.0" encoding="utf-8"?>
<!-- Generator: Adobe Illustrator 22.0.1, SVG Export Plug-In . SVG Version: 6.00 Build 0)  -->
<svg version="1.1" id="Layer_1" xmlns="http://www.w3.org/2000/svg" xmlns:xlink="http://www.w3.org/1999/xlink" x="0px" y="0px"
	 viewBox="0 0 85 85" style="enable-background:new 0 0 85 85;" xml:space="preserve">
<style type="text/css">
	.st0{fill:#DEDFE0;}
	.st1{fill:#0F7DEA;}
	.st2{fill:#005AC9;}
</style>
<g>
	<path class="st0" d="M35.8,16.7L35.8,16.7c-1.1,0.3-1.3,1.6-0.9,3.2c0.4,1.6,1.2,2.7,2.3,2.4c1-0.2,1.3-1.4,0.9-3.2
		C37.7,17.6,36.9,16.5,35.8,16.7z"/>
	<path class="st0" d="M48.6,20.5L48.6,20.5c-1.1,0.3-1.3,1.6-0.9,3.2c0.4,1.6,1.2,2.7,2.2,2.4s1.3-1.4,0.9-3.2
		C50.4,21.4,49.7,20.3,48.6,20.5z"/>
	<path class="st0" d="M57.3,19.5c-1.2-7.7-8.4-12.9-16.1-11.6S28.3,16.3,29.6,24S38,36.9,45.7,35.6C53.3,34.4,58.6,27.2,57.3,19.5z
		 M32.2,20.6c-0.7-2.8,0.5-5.3,3.2-5.9l0,0c2.7-0.6,4.6,1,5.3,3.7c0.8,3.2-0.9,5.4-3.1,6C35.2,24.9,32.9,23.6,32.2,20.6z M41.2,30.3
		l-2,0.5l5.2-18.2l1.9-0.5L41.2,30.3z M50.3,28.1c-2.3,0.6-4.6-0.8-5.3-3.7c-0.7-2.8,0.5-5.3,3.2-5.9l0,0c2.7-0.6,4.6,1,5.3,3.6
		C54.2,25.4,52.5,27.6,50.3,28.1z"/>
</g>
<path class="st1" d="M59.2,40.8l9-16.9c0.6-1.2,0.2-2.6-1-3.2c-0.6-0.3-1.2-0.4-1.8-0.2s-1.1,0.6-1.4,1.2L53.9,40.8H32.7L22.5,21.7
	c-0.3-0.6-0.8-1-1.4-1.2c-0.6-0.2-1.2-0.1-1.8,0.2c-1.2,0.6-1.6,2.1-1,3.2l9,16.9H10.5v6h3l7,32h44l7-32h3v-6
	C74.5,40.8,59.2,40.8,59.2,40.8z M30.5,71.8l-4-16h4l4,16H30.5z M44.5,71.8h-4v-16h4V71.8z M54.5,71.8h-4l4-16h4L54.5,71.8z"/>
<polygon class="st2" points="70.6,50.8 71.5,46.8 13.5,46.8 14.4,50.8 "/>
</svg>
