<?xml version="1.0" encoding="utf-8"?>
<!-- Generator: Adobe Illustrator 22.0.1, SVG Export Plug-In . SVG Version: 6.00 Build 0)  -->
<svg version="1.1" id="Layer_1" xmlns="http://www.w3.org/2000/svg" xmlns:xlink="http://www.w3.org/1999/xlink" x="0px" y="0px"
	 viewBox="0 0 85 85" style="enable-background:new 0 0 85 85;" xml:space="preserve">
<style type="text/css">
	.st0{fill:none;}
	.st1{fill:#DEDFE0;}
	.st2{fill:#0F7DEA;}
	.st3{fill:#005AC9;}
</style>
<path class="st0" d="M49.4,12.1L49.4,12.1C49.6,12.1,49.5,12.1,49.4,12.1z"/>
<path class="st0" d="M58.9,21.6C58.9,21.6,58.9,21.7,58.9,21.6C59,21.5,59,21.4,58.9,21.6z"/>
<path class="st0" d="M45.4,27.8l4.8-1.1c1.2-0.3,2.5-0.6,3.6-1s2.3-0.8,2.6-1.3c0.7-0.6,1.4-1.3,1.9-1.9c-0.6-0.2-1.3-0.4-2-0.6
	c-1.3-0.5-2.7-0.6-4.7-2.4c-1.7-2-1.9-3.4-2.4-4.7c-0.2-0.7-0.4-1.5-0.6-2c-0.6,0.5-1.3,1.2-1.9,1.9c-0.4,0.4-0.9,1.5-1.3,2.6
	c-0.4,1.1-0.7,2.4-1,3.6L43.1,26C44.1,26.2,45,26.9,45.4,27.8z"/>
<path class="st0" d="M45.6,29.4H48c-0.8-0.1-1.6-0.2-2.4-0.3C45.6,29.2,45.6,29.3,45.6,29.4z"/>
<path class="st0" d="M37.1,29.4h2.4c0-0.1,0-0.2,0-0.3C38.7,29.2,37.9,29.3,37.1,29.4z"/>
<path class="st0" d="M35.7,12.1C35.5,12.1,35.4,12,35.7,12.1L35.7,12.1z"/>
<path class="st0" d="M26.2,21.7C26.2,21.7,26.2,21.6,26.2,21.7C26.1,21.4,26.1,21.5,26.2,21.7z"/>
<path class="st0" d="M39.7,27.8c0.4-0.9,1.2-1.6,2.2-1.8l-1.2-5.1c-0.3-1.2-0.6-2.5-1-3.6s-0.8-2.3-1.3-2.6
	c-0.6-0.7-1.3-1.4-1.9-1.9c-0.2,0.6-0.4,1.3-0.6,2c-0.5,1.3-0.6,2.7-2.4,4.7c-2,1.8-3.4,1.9-4.7,2.4c-0.7,0.2-1.5,0.4-2,0.6
	c0.5,0.6,1.2,1.3,1.9,1.9c0.4,0.4,1.5,0.9,2.6,1.3c1.1,0.4,2.4,0.7,3.6,1L39.7,27.8z"/>
<path class="st1" d="M50.4,29.6c1.3,0.1,2.7,0,4.1-0.1c0.3,0,0.6-0.1,1-0.1H48C48.8,29.5,49.6,29.5,50.4,29.6z"/>
<path class="st1" d="M34.6,29.6c0.8,0,1.6-0.1,2.5-0.2h-7.5c0.3,0,0.6,0.1,0.9,0.1C31.9,29.6,33.3,29.6,34.6,29.6z"/>
<path class="st1" d="M22.4,25.5c0.3,0.4,0.7,0.7,1,0.9h10.5c-0.9-0.2-1.7-0.5-2.5-0.7c-1.1-0.4-2.3-0.8-2.6-1.3
	c-0.7-0.6-1.4-1.3-1.9-1.9c0.6-0.2,1.3-0.4,2-0.6c1.3-0.5,2.7-0.6,4.7-2.4c1.7-2,1.9-3.4,2.4-4.7c0.2-0.7,0.4-1.5,0.6-2
	c0.6,0.5,1.3,1.2,1.9,1.9c0.4,0.4,0.9,1.5,1.3,2.6c0.4,1.1,0.7,2.4,1,3.6L42,26c-0.3,0.1-0.7,0.2-0.9,0.4h3.1
	c-0.3-0.2-0.6-0.3-0.9-0.4l1.2-5.1c0.3-1.2,0.6-2.5,1-3.6s0.8-2.3,1.3-2.6c0.6-0.7,1.3-1.4,1.9-1.9c0.2,0.6,0.4,1.3,0.6,2
	c0.5,1.3,0.6,2.7,2.4,4.7c2,1.8,3.4,1.9,4.7,2.4c0.7,0.2,1.5,0.4,2,0.6c-0.5,0.6-1.2,1.3-1.9,1.9c-0.4,0.4-1.5,0.9-2.6,1.3
	c-0.8,0.3-1.7,0.5-2.5,0.7h10.5c0.3-0.3,0.7-0.6,1-0.9c0.6-0.7,1.3-1.4,1.7-3c0.2-0.8,0-2-0.4-2.8c-0.4-0.8-1-1.3-1.5-1.6
	c-1.8-1.3-3.1-1.5-4.3-2c-1.1-0.3-2.4-0.9-2.3-0.9c0,0.1-0.6-1.1-1-2.3c-0.5-1.2-0.7-2.5-2-4.3c-0.3-0.4-0.9-1-1.6-1.5
	c-0.8-0.5-1.9-0.6-2.8-0.4c-1.6,0.4-2.3,1.1-3,1.7c-1.2,1.2-2,2.4-2.7,3.6c-0.1,0.2-0.2,0.4-0.3,0.6c-0.1-0.2-0.2-0.4-0.3-0.6
	c-0.7-1.2-1.5-2.4-2.7-3.6c-0.7-0.6-1.4-1.3-3-1.7c-0.8-0.2-2,0-2.8,0.4c-0.8,0.4-1.3,1-1.6,1.5c-1.3,1.8-1.5,3.1-2,4.3
	c-0.3,1.1-0.9,2.4-1,2.3c0.1,0-1.1,0.6-2.3,0.9c-1.2,0.5-2.5,0.7-4.3,2c-0.4,0.3-1,0.9-1.5,1.6c-0.5,0.8-0.6,1.9-0.4,2.8
	C21.1,24.1,21.8,24.8,22.4,25.5z M58.9,21.6C59,21.4,59,21.5,58.9,21.6C58.9,21.7,58.9,21.6,58.9,21.6z M49.4,12.1L49.4,12.1
	C49.5,12.1,49.6,12.1,49.4,12.1z M35.7,12.1L35.7,12.1C35.4,12.1,35.5,12.1,35.7,12.1z M26.2,21.6C26.2,21.6,26.2,21.7,26.2,21.6
	C26.1,21.5,26.1,21.4,26.2,21.6z"/>
<g>
	<path class="st2" d="M40.8,31.5L40.8,31.5L33,45.2c-0.6,1.1-2.2,1-2.7-0.1c-0.9-2-2.5-3.5-4.4-4.4c-1.1-0.5-1.1-2.1-0.1-2.7
		l13.9-7.9c-0.1-0.2-0.1-0.5-0.2-0.7H15v18h3v31h30.7H36.4L40.8,31.5z"/>
	<path class="st2" d="M45.6,29.4c0,0.3-0.1,0.5-0.2,0.7L59.3,38c1.1,0.6,1,2.2-0.1,2.7c-2,0.9-3.5,2.5-4.4,4.4
		c-0.5,1.1-2.1,1.1-2.7,0.1l-7.8-13.7l0,0l4.4,46.9H67v-31h3v-18C70,29.4,45.6,29.4,45.6,29.4z"/>
</g>
<g>
	<polygon class="st3" points="39.3,47.4 18,47.4 18,51.4 38.9,51.4 	"/>
	<polygon class="st3" points="45.8,47.4 46.1,51.4 67,51.4 67,47.4 	"/>
</g>
</svg>
