<?xml version="1.0" encoding="utf-8"?>
<!-- Generator: Adobe Illustrator 22.0.1, SVG Export Plug-In . SVG Version: 6.00 Build 0)  -->
<svg version="1.1" id="Layer_1" xmlns="http://www.w3.org/2000/svg" xmlns:xlink="http://www.w3.org/1999/xlink" x="0px" y="0px"
	 viewBox="0 0 85 85" style="enable-background:new 0 0 85 85;" xml:space="preserve">
<style type="text/css">
	.st0{fill:#DEDFE0;}
	.st1{fill:none;stroke:#FFFFFF;stroke-width:2;stroke-miterlimit:10;}
	.st2{fill:#0F7DEA;}
</style>
<polygon class="st0" points="21,15 61,15 61,11 17,11 17,67 21,67 "/>
<g>
	<path class="st1" d="M60.7,54.4"/>
</g>
<g>
	<path class="st1" d="M49,54.4"/>
</g>
<path class="st2" d="M68,18H24v56h44V18z M53,46v-2h8v2H53z M61,49v2h-8v-2H61z M53,41v-2h8v2H53z M38,29h16v2H38V29z M31,39h19v2
	H31V39z M31,44h19v2H31V44z M31,49h19v2H31V49z M59.7,67.1L56.9,67l-1.3,2.5l-2.1-1.8L51,68.8L50.5,66l-2.7-0.8l1.4-2.4l-1.5-2.3
	l2.6-0.9l0.3-2.8l2.6,1l2-1.9l1.3,2.5l2.8-0.2L59,60.9l2.2,1.7L59,64.4L59.7,67.1z"/>
</svg>
